<?xml version="1.0" encoding="UTF-8"?>
<svg width="155px" height="28px" viewBox="0 0 155 28" version="1.1" xmlns="http://www.w3.org/2000/svg" xmlns:xlink="http://www.w3.org/1999/xlink">
    <!-- Generator: Sketch 45.2 (43514) - http://www.bohemiancoding.com/sketch -->
    <title>Logo</title>
    <desc>Created with Sketch.</desc>
    <defs></defs>
    <g id="Vision" stroke="none" stroke-width="1" fill="none" fill-rule="evenodd">
        <g id="Web-:-Landing-Page" transform="translate(-16.000000, -16.000000)" fill="#FFFFFF">
            <g id="Hero">
                <g id="Navigation" transform="translate(16.000000, 14.000000)">
                    <g id="Logo" transform="translate(0.000000, 2.000000)">
                        <polygon id="Fill-1" points="10.5786675 0.0184925373 0.144113667 21.1045821 13.1686706 21.1045821 11.4426336 17.3433881 5.7825293 17.3433881 10.5715082 7.67126866 10.5729821 7.67837313 10.5750878 7.80249254 17.0873663 21.1045821 21.0132214 21.1045821"></polygon>
                        <path d="M23.1926984,17.3432836 L24.918946,21.1044776 L31.6323182,21.1044776 C30.3764826,23.6119403 28.2827914,24.4375224 26.8115434,24.8061194 L28.31185,27.7772537 C32.2667637,26.6346866 35.742632,23.1777313 35.8310711,17.7561791 L35.8371776,17.3432836 L23.1926984,17.3432836 Z" id="Fill-2"></path>
                        <path d="M25.411573,10.5677851 C28.1584502,10.5677851 29.7328773,12.1458149 30.4898741,12.9686806 L30.6008442,12.9553075 L34.7330572,12.9553075 L34.4340487,12.5323821 C32.5985157,9.16820299 29.1005375,7.14071045 25.3056566,7.14071045 C22.9830766,7.14071045 20.8613798,7.89942687 19.1490298,9.15775522 L20.7687293,12.4452478 C21.9942429,11.2736358 23.6244709,10.5677851 25.411573,10.5677851" id="Fill-4"></path>
                        <path d="M47.1849076,19.4246657 L51.6891967,19.4246657 L49.4352623,8.35442687 L47.1849076,19.4246657 Z M45.9084362,23.3166657 L49.2040572,7.04302388 C49.2072157,7.04302388 49.2086897,7.03550149 49.2086897,7.02003881 L49.2086897,6.99726269 L49.2314312,6.97427761 L49.2314312,6.95150149 L49.2541727,6.95150149 L49.2541727,6.92830746 L49.2767036,6.92830746 L49.2767036,6.90553134 L49.2994451,6.90553134 C49.2994451,6.89027761 49.306815,6.88275522 49.321976,6.88275522 L49.3447175,6.88275522 L49.3447175,6.85977015 L49.3672484,6.85977015 L49.4127314,6.85977015 L49.4352623,6.85977015 L49.4577932,6.85977015 L49.5032762,6.85977015 L49.5258071,6.88233731 L49.5485486,6.88233731 L49.5712901,6.88233731 L49.5712901,6.90469552 L49.593821,6.90469552 L49.593821,6.92705373 L49.6165625,6.92705373 L49.6165625,6.9496209 L49.6390935,6.9719791 L49.6390935,6.99475522 L49.6729951,6.99475522 L49.6729951,7.01711343 L49.6729951,7.0396806 L52.9576665,23.3131134 C52.9726169,23.343203 52.9801974,23.3695313 52.9801974,23.3918896 C52.9801974,23.4219791 52.9688267,23.4518597 52.9460852,23.4817403 C52.9083933,23.534397 52.8517501,23.5718 52.7763663,23.5941582 L52.7310939,23.5941582 C52.5950661,23.5941582 52.5083115,23.5306358 52.4706196,23.4031731 L51.7797415,19.9303373 L47.0821498,19.9303373 L46.3761107,23.4029642 C46.3470522,23.5231134 46.270826,23.5868448 46.147643,23.5941582 L46.1042657,23.5941582 C45.9433907,23.5571731 45.8781142,23.4648149 45.9084362,23.3166657 L45.9084362,23.3166657 Z" id="Fill-6" stroke="#FFFFFF" stroke-width="0.2"></path>
                        <path d="M57.1080938,20.0876597 L57.1080938,19.7056896 L57.1080938,6.99473433 C57.1080938,6.84491343 57.1948484,6.76989851 57.3685681,6.76989851 C57.5422878,6.76989851 57.6252521,6.84491343 57.6176716,6.99473433 L57.6176716,19.7280478 L57.6176716,19.7506149 C57.6100911,19.8630328 57.6065114,19.9714806 57.6065114,20.0763761 C57.6065114,20.2938985 57.6252521,20.5074507 57.6631546,20.7172418 C57.6930555,20.9943164 57.7667547,21.281003 57.8840419,21.5768836 C58.0009079,21.8729731 58.1765227,22.1519284 58.4106758,22.4141672 C58.8861414,22.9388537 59.5732292,23.2006746 60.4719392,23.2006746 C61.3851785,23.2006746 62.0987981,22.9311224 62.6123767,22.3916 C62.8311583,22.144406 62.9975081,21.8802866 63.1105838,21.5992418 C63.2238701,21.318406 63.3032548,21.0469731 63.3485272,20.7845254 C63.4011695,20.5523761 63.4277013,20.3124955 63.4277013,20.0653015 C63.4277013,20.0053313 63.423911,19.9453612 63.4163305,19.885391 L63.4163305,19.8630328 L63.4163305,7.01709254 C63.4163305,6.84491343 63.5032957,6.76237612 63.6770154,6.76989851 C63.8505245,6.76989851 63.9334889,6.85243582 63.9261189,7.01709254 L63.9261189,19.8630328 L63.9261189,20.2113612 C63.9261189,20.4138388 63.895797,20.655391 63.8355741,20.9364358 C63.7749302,21.2170627 63.6787,21.519003 63.546673,21.841003 C63.4144354,22.1632119 63.2162897,22.4628537 62.9520251,22.7399284 C62.3632732,23.3695104 61.5363673,23.684197 60.4719392,23.684197 C59.422251,23.684197 58.6105061,23.3695104 58.0369152,22.7399284 C57.7724401,22.4628537 57.5742943,22.1554806 57.4422674,21.8184358 C57.3100298,21.481391 57.2213801,21.1629433 57.1761077,20.8633015 C57.1308353,20.5634507 57.1080938,20.3051821 57.1080938,20.0876597" id="Fill-8" stroke="#FFFFFF" stroke-width="0.2"></path>
                        <path d="M67.4763815,7.10692239 C67.4763815,6.95710149 67.563136,6.88229552 67.7368557,6.88229552 L75.3363038,6.88229552 C75.5100235,6.88229552 75.5967781,6.95710149 75.5967781,7.10692239 C75.5967781,7.27931045 75.5100235,7.3654 75.3363038,7.3654 L71.8141102,7.3654 L71.8141102,23.3356388 C71.8141102,23.5080269 71.7309353,23.5941164 71.5650066,23.5941164 C71.4138178,23.5941164 71.3344332,23.5080269 71.3270633,23.3356388 L71.3270633,7.3654 L67.7368557,7.3654 C67.563136,7.3654 67.4763815,7.27931045 67.4763815,7.10692239" id="Fill-10" stroke="#FFFFFF" stroke-width="0.2"></path>
                        <path d="M79.2604532,20.2337612 C79.2604532,20.4061493 79.2829842,20.6086269 79.3284671,20.8405672 C79.3737396,21.1103284 79.4510185,21.4026567 79.5607251,21.7173433 C79.6700106,22.0320299 79.838045,22.3128657 80.0646176,22.5602687 C80.5630353,23.0849552 81.2539133,23.3432239 82.1372518,23.3357015 C83.0507016,23.3357015 83.7605309,23.0697015 84.2663185,22.5377015 C84.5004717,22.2905075 84.6701906,22.0207463 84.7758964,21.7284179 C84.8816022,21.4362985 84.9588811,21.1629851 85.0083649,20.9082687 C85.057217,20.6535522 85.0818536,20.44 85.0818536,20.2676119 L85.0818536,19.9978507 L85.1045951,10.3999104 C85.1045951,9.80062687 85.0157349,9.29474627 84.8384355,8.88268657 C84.6607149,8.47083582 84.4288781,8.13713433 84.141872,7.88262687 C83.8546554,7.62791045 83.5339583,7.44235821 83.1789384,7.3261791 C82.824129,7.21020896 82.4769001,7.1521194 82.1372518,7.1521194 C81.7824424,7.1521194 81.4295282,7.21773134 81.0782985,7.34853731 C80.7272794,7.47976119 80.4215327,7.67638806 80.1608478,7.93862687 C79.9003735,8.20107463 79.6889619,8.5381194 79.5268235,8.9501791 C79.3642639,9.36244776 79.2829842,9.84555224 79.2829842,10.3999104 L79.2829842,19.8630746 C79.2678232,20.0803881 79.2604532,20.2038806 79.2604532,20.2337612 M78.7734063,20.2337612 L78.7734063,19.8405075 L78.7734063,10.3999104 C78.7734063,9.17125373 79.1433767,8.21235821 79.8833174,7.52280597 C80.1930649,7.26056716 80.5402938,7.05265672 80.9252146,6.89907463 C81.3105565,6.74549254 81.7144285,6.66859701 82.1372518,6.66859701 C82.552284,6.66859701 82.9565771,6.73797015 83.3488678,6.87650746 C83.7415797,7.01525373 84.0928094,7.21564179 84.4025569,7.4778806 C85.1875595,8.16722388 85.5840616,9.14116418 85.5914315,10.3999104 L85.5914315,19.9754925 L85.5914315,20.3461791 C85.5914315,20.5484478 85.5594249,20.790209 85.4952013,21.0710448 C85.4311882,21.3520896 85.334958,21.6538209 85.2065107,21.9758209 C85.0778528,22.2980299 84.8816022,22.5976716 84.6175482,22.8749552 C84.0134247,23.5041194 83.1865189,23.8190149 82.1372518,23.8190149 C81.102514,23.8190149 80.2911902,23.5041194 79.7022277,22.8749552 C79.4379632,22.5976716 79.2396069,22.2905075 79.1075799,21.9532537 C78.9753423,21.616209 78.8869032,21.2998507 78.8414202,21.0037612 C78.7961478,20.7078806 78.7734063,20.4512836 78.7734063,20.2337612" id="Fill-12" stroke="#FFFFFF" stroke-width="0.2"></path>
                        <path d="M89.368393,20.0660328 L89.368393,19.8863313 C89.368393,19.7814358 89.3721832,19.7064209 89.3797637,19.6614955 L89.3797637,10.6363015 C89.3797637,9.93191343 89.4928394,9.31758507 89.7189909,8.79310746 C89.9449319,8.26862985 90.235307,7.83776418 90.5896952,7.50051045 C90.9436623,7.16346567 91.3454286,6.91418209 91.7941519,6.75286866 C92.2422435,6.59197313 92.6966522,6.51131642 93.1565357,6.51131642 C94.1470539,6.51131642 94.9901736,6.81868955 95.6861053,7.43301791 C95.9809024,7.69525672 96.2645394,8.08286866 96.5368055,8.59606269 C96.8088611,9.10925672 96.9450995,9.7967194 96.9450995,10.6584507 C96.9450995,10.8759731 96.8640303,11.0629881 96.7016813,11.2203313 C96.5393324,11.3776746 96.3485565,11.4564507 96.1295644,11.4564507 C95.8956218,11.4564507 95.6991606,11.376003 95.5406019,11.2148985 C95.3822538,11.053794 95.3030797,10.8682418 95.3030797,10.6584507 C95.3030797,10.074003 95.2119031,9.61325672 95.0303924,9.27600299 C94.848671,8.93895821 94.642313,8.68612239 94.411529,8.51728657 C94.180745,8.34886866 93.9459602,8.24021194 93.7073851,8.19152537 C93.4690206,8.14283881 93.2854041,8.11839104 93.1567462,8.11839104 C92.5964212,8.11839104 92.1159019,8.29851045 91.7147673,8.65833134 C91.2376171,9.10068955 90.9992526,9.76057015 90.9992526,10.6379731 L90.9992526,19.7373463 L90.9992526,19.7597045 L90.9992526,19.9958239 C90.9992526,20.1385403 91.014203,20.3184507 91.044525,20.5357642 C91.074847,20.7532866 91.1314902,20.9856448 91.2150862,21.2332567 C91.2980505,21.4806597 91.4344995,21.6944209 91.6238013,21.8743313 C91.9640814,22.2416746 92.4753438,22.4253463 93.1565357,22.4253463 C93.8829999,22.4253463 94.4170038,22.2335254 94.7574945,21.8498836 C94.9316353,21.6618239 95.0659786,21.4530776 95.1607348,21.2234358 C95.2550699,20.9942119 95.3213992,20.7798239 95.3593017,20.5802716 C95.3972042,20.3809284 95.4161554,20.2095851 95.4161554,20.0668687 L95.4161554,19.8637642 L95.4161554,19.841197 L95.4161554,16.9072567 L93.7855063,16.9072567 C93.5511426,16.9072567 93.3551026,16.8272269 93.1965438,16.6671672 C93.0377746,16.5073164 92.9586005,16.3117343 92.9586005,16.0812567 C92.9586005,15.865406 93.0396697,15.6775552 93.2020186,15.5174955 C93.3643676,15.3576448 93.5587231,15.2776149 93.7855063,15.2776149 L97.0356443,15.2776149 L97.0356443,19.7954358 C97.0432248,19.8332567 97.0508053,19.9043015 97.0585964,20.009197 C97.0585964,20.0616448 97.0545956,20.1216149 97.0470151,20.1888985 C97.0394346,20.3911672 97.0131134,20.6197642 96.967841,20.8744806 C96.7941213,21.7211672 96.4620534,22.4105104 95.9710057,22.9425104 C95.2765479,23.6767791 94.340146,24.0474657 93.1624316,24.0549881 C91.9845066,24.0549881 91.0746364,23.6843015 90.4330316,22.9427194 C89.904292,22.403406 89.5682233,21.6766597 89.4250361,20.7626896 C89.3947141,20.5006597 89.3757629,20.2685104 89.368393,20.0660328" id="Fill-14" stroke="#FFFFFF" stroke-width="0.2"></path>
                        <path d="M102.499982,15.4237164 L105.133994,15.4237164 C105.338247,15.4237164 105.551975,15.3395075 105.775389,15.1708806 C105.998592,15.0020448 106.20116,14.7717761 106.382881,14.4794478 C106.617666,14.1275672 106.801072,13.7249104 106.93352,13.2714776 C107.065968,12.8182537 107.132087,12.3518657 107.132087,11.8723134 C107.132087,11.4151194 107.065968,10.9602239 106.93352,10.506791 C106.801072,10.0535672 106.617666,9.65070149 106.382881,9.29861194 C106.193579,8.99144776 105.987432,8.75741791 105.764018,8.59610448 C105.540604,8.43520896 105.330666,8.35455224 105.133994,8.35455224 L102.499982,8.35455224 L102.499982,15.4237164 Z M100.880493,23.0434776 L100.880493,7.54526866 C100.880493,7.31332836 100.961352,7.11816418 101.123701,6.9608209 C101.285629,6.80347761 101.472193,6.72491045 101.683394,6.72491045 L105.144102,6.72491045 C105.641677,6.72491045 106.116722,6.87285075 106.568814,7.16873134 C107.021327,7.4648209 107.424778,7.88252239 107.779167,8.42183582 C108.088072,8.91643284 108.327489,9.46159701 108.497208,10.0571194 C108.666716,10.6528507 108.751576,11.2577761 108.751576,11.8723134 C108.751576,12.5016866 108.666506,13.1160149 108.496787,13.7152985 C108.326647,14.314791 108.086598,14.8618358 107.777061,15.3562239 C107.391508,15.9406716 106.976055,16.3602537 106.53049,16.6149701 L109.216092,22.7175075 C109.268945,22.8374478 109.295266,22.9536269 109.295266,23.0660448 C109.295266,23.1634179 109.276525,23.2570299 109.238833,23.3468806 C109.163239,23.5568806 109.01584,23.6991791 108.797059,23.7739851 C108.736415,23.8038657 108.679982,23.8226716 108.627129,23.830194 C108.574276,23.8377164 108.525214,23.8414776 108.479731,23.8414776 C108.306011,23.8414776 108.152927,23.8038657 108.020479,23.7290597 C107.888242,23.6542537 107.78422,23.5307612 107.708415,23.3581642 L104.918161,17.030791 L102.499982,17.030791 L102.499982,23.0434776 C102.499982,23.2758358 102.419755,23.4668209 102.259723,23.6166418 C102.099901,23.7664627 101.904282,23.8414776 101.673498,23.8414776 C101.457664,23.8414776 101.27131,23.7664627 101.115068,23.6166418 C100.958615,23.4668209 100.880493,23.2758358 100.880493,23.0434776 L100.880493,23.0434776 Z" id="Fill-16" stroke="#FFFFFF" stroke-width="0.2"></path>
                        <path d="M114.027012,18.9639194 L117.18113,18.9639194 L115.584383,11.1840985 L114.027012,18.9639194 Z M111.656422,23.1334119 L114.887398,7.23129254 C114.901296,7.17111343 114.915404,7.12994925 114.929512,7.10738209 L114.929512,7.08481493 L114.929512,7.06245672 C114.959834,6.98765075 114.997526,6.93520299 115.042799,6.90490448 L115.042799,6.8599791 L115.06554,6.8599791 L115.06554,6.83741194 L115.089966,6.83741194 L115.089966,6.81484478 L115.114392,6.81484478 L115.114392,6.79248657 L115.138818,6.79248657 C115.171667,6.76260597 115.204095,6.73815821 115.236522,6.71935224 C115.269161,6.70075522 115.314012,6.6836209 115.371287,6.66857612 L115.371287,6.64621791 L115.393818,6.64621791 C115.42414,6.63117313 115.458041,6.62365075 115.495944,6.62365075 C115.533425,6.62365075 115.567537,6.61633731 115.597859,6.60129254 L115.62039,6.60129254 L115.665663,6.60129254 L115.688404,6.60129254 C115.718516,6.61633731 115.754312,6.62365075 115.796005,6.62365075 C115.837487,6.62365075 115.873495,6.63117313 115.903606,6.64621791 L115.926348,6.64621791 L115.926348,6.66857612 C115.996046,6.6836209 116.048267,6.70075522 116.083011,6.71914328 C116.117966,6.73794925 116.15271,6.76239701 116.187664,6.79227761 L116.213775,6.79227761 L116.213775,6.81463582 L116.239885,6.81463582 L116.239885,6.83741194 L116.265996,6.83741194 L116.265996,6.85977015 L116.288527,6.90469552 C116.303899,6.93478507 116.324324,6.96090448 116.350855,6.98347164 C116.377387,7.00582985 116.398023,7.03215821 116.413184,7.06203881 L116.413184,7.08439701 L116.413184,7.10696418 C116.428134,7.12200896 116.435504,7.16317313 116.435504,7.23066567 L119.630052,23.1334119 C119.645002,23.1933821 119.652372,23.2498 119.652372,23.3020388 C119.652372,23.4520687 119.606679,23.590606 119.515502,23.7178597 C119.394004,23.8975612 119.230602,24.0099791 119.025718,24.0549045 L118.889058,24.0549045 C118.714075,24.0549045 118.552569,23.9968149 118.404538,23.8808448 C118.256508,23.7646657 118.167227,23.6204866 118.137115,23.4480985 L117.510461,20.4585761 L113.727582,20.4585761 L113.129565,23.446009 C113.100296,23.6188149 113.013542,23.7636209 112.869512,23.8802179 C112.725272,23.9968149 112.561028,24.0549045 112.376569,24.0549045 L112.24349,24.0549045 C112.04408,24.0099791 111.889101,23.8975612 111.778342,23.7178597 C111.697062,23.590606 111.656422,23.4556209 111.656422,23.3131134 L111.656422,23.1334119 Z" id="Fill-18" stroke="#FFFFFF" stroke-width="0.2"></path>
                        <path d="M120.609157,7.71379104 C120.593996,7.65402985 120.586627,7.59426866 120.586627,7.53408955 C120.586627,7.38426866 120.631478,7.23820896 120.721812,7.09570149 C120.841626,6.90095522 121.010292,6.78498507 121.228021,6.74737313 C121.280453,6.73253731 121.336675,6.72501493 121.396687,6.72501493 C121.554193,6.72501493 121.700538,6.77391045 121.835513,6.87149254 C122.030501,6.99937313 122.150525,7.1721791 122.195376,7.3901194 L124.582601,19.0562985 L126.973616,7.38552239 C127.018257,7.16925373 127.130912,6.99728358 127.310948,6.87044776 C127.445923,6.77349254 127.592269,6.72501493 127.749775,6.72501493 C127.802207,6.72501493 127.858429,6.73253731 127.918651,6.74716418 C128.15112,6.79208955 128.327367,6.90785075 128.447391,7.09402985 C128.537304,7.23591045 128.582577,7.38134328 128.582577,7.53032836 C128.582577,7.59008955 128.574996,7.64964179 128.560046,7.70940299 L125.437934,23.0621791 C125.392872,23.2506567 125.292009,23.4052836 125.135346,23.5256418 C124.978682,23.6464179 124.810437,23.706597 124.631453,23.706597 L124.586602,23.706597 L124.51922,23.706597 C124.332655,23.706597 124.162515,23.6447463 124.009431,23.5210448 C123.856558,23.3975522 123.76496,23.2458507 123.73527,23.0661493 L120.609157,7.71379104 Z" id="Fill-20" stroke="#FFFFFF" stroke-width="0.2"></path>
                        <path d="M131.759036,23.0434358 L131.759036,7.52286866 C131.759036,7.30576418 131.836315,7.11812239 131.991294,6.9607791 C132.145852,6.80343582 132.340418,6.72486866 132.574361,6.72486866 C132.793353,6.72486866 132.982234,6.80552537 133.140793,6.96662985 C133.299141,7.12773433 133.378525,7.31328657 133.378525,7.52286866 L133.378525,23.0434358 C133.378525,23.2609582 133.297456,23.4481821 133.135107,23.6053164 C132.972758,23.7626597 132.785773,23.8414358 132.574361,23.8414358 C132.340418,23.8414358 132.145852,23.7626597 131.991294,23.6053164 C131.836315,23.4481821 131.759036,23.2609582 131.759036,23.0434358" id="Fill-22" stroke="#FFFFFF" stroke-width="0.2"></path>
                        <path d="M136.249281,7.54524776 C136.249281,7.31330746 136.33035,7.11814328 136.492699,6.9608 C136.655258,6.80345672 136.853193,6.72488955 137.087347,6.72488955 L144.369677,6.72488955 C144.588669,6.72488955 144.77755,6.80554627 144.936109,6.96644179 C145.094667,7.12775522 145.173842,7.3206209 145.173842,7.54524776 C145.173842,7.76277015 145.092562,7.95187463 144.930423,8.1129791 C144.767864,8.27408358 144.580878,8.35453134 144.369677,8.35453134 L141.561103,8.35453134 L141.561103,23.0434567 C141.561103,23.2758149 141.483403,23.4668 141.328845,23.6166209 C141.174077,23.7664418 140.979511,23.8414567 140.745568,23.8414567 C140.526365,23.8414567 140.337906,23.7645612 140.179347,23.6111881 C140.020788,23.457606 139.941404,23.2682925 139.941404,23.0434567 L139.941404,8.35453134 L137.087347,8.35453134 C136.853193,8.35453134 136.655258,8.27408358 136.492699,8.1129791 C136.33035,7.95187463 136.249281,7.76277015 136.249281,7.54524776" id="Fill-24" stroke="#FFFFFF" stroke-width="0.2"></path>
                        <path d="M147.308488,7.84867164 C147.270586,7.74398507 147.251635,7.64285075 147.251635,7.54526866 C147.251635,7.4330597 147.274376,7.32816418 147.319859,7.23058209 C147.402613,7.02831343 147.553591,6.88977612 147.772794,6.81476119 C147.88608,6.76983582 147.999156,6.74371642 148.112442,6.73619403 C148.210568,6.73619403 148.308693,6.75855224 148.407029,6.80347761 C148.61844,6.88622388 148.761628,7.03583582 148.837432,7.2529403 L151.068415,12.8610896 L153.288237,7.2529403 C153.363621,7.03583582 153.507019,6.88622388 153.718641,6.80347761 C153.816766,6.76607463 153.918682,6.74371642 154.024598,6.73619403 C154.137884,6.73619403 154.25096,6.76252239 154.364246,6.81476119 C154.583238,6.88977612 154.734217,7.02831343 154.817181,7.23058209 C154.862453,7.33568657 154.881405,7.44058209 154.874035,7.54526866 C154.874035,7.64285075 154.858663,7.74398507 154.828552,7.84867164 L151.872579,15.2099552 L151.872579,23.0434776 C151.872579,23.2758358 151.79509,23.4668209 151.640321,23.6166418 C151.485553,23.7664627 151.294987,23.8414776 151.068415,23.8414776 C150.849423,23.8414776 150.658857,23.7645821 150.496719,23.611209 C150.334159,23.4576269 150.25288,23.2683134 150.25288,23.0434776 L150.25288,15.2099552 L147.308488,7.84867164 Z" id="Fill-26" stroke="#FFFFFF" stroke-width="0.2"></path>
                    </g>
                </g>
            </g>
        </g>
    </g>
</svg>