<?xml version="1.0" encoding="UTF-8"?>
<svg width="12px" height="24px" viewBox="0 0 12 24" version="1.1" xmlns="http://www.w3.org/2000/svg" xmlns:xlink="http://www.w3.org/1999/xlink">
    <!-- Generator: Sketch 46.2 (44496) - http://www.bohemiancoding.com/sketch -->
    <title>Twitter_Social_Icon_Rounded_Square_Color</title>
    <desc>Created with Sketch.</desc>
    <defs></defs>
    <g id="Page-1" stroke="none" stroke-width="1" fill="none" fill-rule="evenodd">
        <g id="Twitter_Social_Icon_Rounded_Square_Color" transform="translate(-6.000000, 0.000000)" fill-rule="nonzero">
            <g id="Dark_Blue" fill="#1DA1F2" opacity="0">
                <path d="M21,24 L3,24 C1.344,24 0,22.656 0,21 L0,3 C0,1.344 1.344,0 3,0 L21,0 C22.656,0 24,1.344 24,3 L24,21 C24,22.656 22.656,24 21,24 Z" id="Shape"></path>
            </g>
            <g id="facebook-2" transform="translate(6.000000, 0.000000)" fill="#6D6F7B">
                <path d="M7.80355556,23.9898462 L7.80355556,13.0905 L11.3265556,13.0905 L11.854,8.84284615 L7.80355556,8.84284615 L7.80355556,6.13084615 C7.80355556,4.90107692 8.13244444,4.06292308 9.83077778,4.06292308 L11.9967778,4.06188462 L11.9967778,0.262846154 C11.622,0.211269231 10.3363333,0.0956538462 8.84055556,0.0956538462 C5.71766667,0.0956538462 3.57966667,2.07507692 3.57966667,5.71038462 L3.57966667,8.84296154 L0.0475555556,8.84296154 L0.0475555556,13.0906154 L3.57955556,13.0906154 L3.57955556,23.9899615 L7.80355556,23.9898462 Z" id="Shape"></path>
            </g>
        </g>
    </g>
</svg>