<?xml version="1.0" encoding="UTF-8"?>
<svg width="24px" height="20px" viewBox="0 0 24 20" version="1.1" xmlns="http://www.w3.org/2000/svg" xmlns:xlink="http://www.w3.org/1999/xlink">
    <!-- Generator: Sketch 46.2 (44496) - http://www.bohemiancoding.com/sketch -->
    <title>Twitter_Social_Icon_Rounded_Square_Color</title>
    <desc>Created with Sketch.</desc>
    <defs></defs>
    <g id="Page-1" stroke="none" stroke-width="1" fill="none" fill-rule="evenodd">
        <g id="Twitter_Social_Icon_Rounded_Square_Color" transform="translate(0.000000, -2.000000)" fill-rule="nonzero">
            <g id="Dark_Blue" fill="#1DA1F2" opacity="0">
                <path d="M21,24 L3,24 C1.344,24 0,22.656 0,21 L0,3 C0,1.344 1.344,0 3,0 L21,0 C22.656,0 24,1.344 24,3 L24,21 C24,22.656 22.656,24 21,24 Z" id="Shape"></path>
            </g>
            <g id="Logo__x2014__FIXED" transform="translate(0.500000, 2.880000)" fill="#6D6F7B">
                <path d="M7.22488996,19 C15.9039616,19 20.6530612,11.6879921 20.6530612,5.35777559 C20.6530612,5.15206693 20.6530612,4.94635827 20.6438575,4.74064961 C21.5642257,4.06742126 22.364946,3.21653543 23,2.25344488 C22.1532613,2.63681102 21.2420968,2.88927165 20.284914,3.01082677 C21.2605042,2.42175197 22.0060024,1.4773622 22.364946,0.355314961 C21.4537815,0.906988189 20.4413766,1.29970472 19.3645458,1.51476378 C18.4993998,0.579724409 17.2753101,0 15.9223689,0 C13.3177271,0 11.2008804,2.15059055 11.2008804,4.79675197 C11.2008804,5.17076772 11.2468988,5.53543307 11.3205282,5.89074803 C7.3997599,5.69438976 3.92076831,3.77755906 1.59223689,0.878937008 C1.18727491,1.58956693 0.957182873,2.41240157 0.957182873,3.29133858 C0.957182873,4.95570866 1.79471789,6.42372047 3.05562225,7.28395669 C2.28251301,7.25590551 1.55542217,7.04084646 0.920368147,6.6855315 C0.920368147,6.70423228 0.920368147,6.72293307 0.920368147,6.75098425 C0.920368147,9.06988189 2.54941977,11.0147638 4.70308123,11.4542323 C4.30732293,11.566437 3.89315726,11.6225394 3.46058423,11.6225394 C3.15686275,11.6225394 2.86234494,11.5944882 2.57703081,11.5383858 C3.17527011,13.4458661 4.92396959,14.8297244 6.98559424,14.867126 C5.3657463,16.1574803 3.33173269,16.9242126 1.12284914,16.9242126 C0.745498199,16.9242126 0.368147259,16.9055118 0,16.8587598 C2.08003201,18.2052165 4.56502601,19 7.22488996,19" id="Shape"></path>
            </g>
        </g>
    </g>
</svg>