<?xml version="1.0" encoding="UTF-8"?>
<svg width="24px" height="17px" viewBox="0 0 24 17" version="1.1" xmlns="http://www.w3.org/2000/svg" xmlns:xlink="http://www.w3.org/1999/xlink">
    <!-- Generator: Sketch 46.2 (44496) - http://www.bohemiancoding.com/sketch -->
    <title>Twitter_Social_Icon_Rounded_Square_Color</title>
    <desc>Created with Sketch.</desc>
    <defs></defs>
    <g id="Page-1" stroke="none" stroke-width="1" fill="none" fill-rule="evenodd">
        <g id="Twitter_Social_Icon_Rounded_Square_Color" transform="translate(0.000000, -4.000000)">
            <g id="Dark_Blue">
                <path d="M21,24 L3,24 C1.344,24 0,22.656 0,21 L0,3 C0,1.344 1.344,0 3,0 L21,0 C22.656,0 24,1.344 24,3 L24,21 C24,22.656 22.656,24 21,24 Z" id="Shape" fill="#1DA1F2" fill-rule="nonzero" opacity="0"></path>
                <g id="Layer_x0020_1" transform="translate(0.000000, 4.000000)">
                    <path d="M22.5969967,1.13943384 C22.1126017,0.696373346 21.4991314,0.405800284 20.8281887,0.331103119 C19.3698993,0.16664017 17.8983867,0.0838575614 16.421996,0.0423521739 C14.9550793,0.00113183365 13.4818764,0.00113183365 12.0119442,0.00198585066 C10.5422209,0.00113184008 9.06911362,0.00113184008 7.60200399,0.0423521739 C6.12544425,0.0838570794 4.65349635,0.166639367 3.19437608,0.331103119 C2.5240808,0.405838526 1.91087362,0.696543667 1.42692359,1.13979537 C0.946051296,1.58019981 0.592745781,2.17166805 0.438187375,2.85157325 C0.229534086,3.76295482 0.123983522,4.71384452 0.0706620598,5.6706328 C0.017133289,6.63147183 0.0157961462,7.58014414 0.0157961462,8.50111673 C0.0157961462,9.42086815 0.015814981,10.3683048 0.068081701,11.3297207 C0.120103654,12.28608 0.224373369,13.2369343 0.433138445,14.148475 C0.588620332,14.8286662 0.942094724,15.4203063 1.42293034,15.8606867 C1.90659173,16.3036909 2.51919452,16.5942254 3.18929845,16.6689612 C4.64860529,16.8334064 6.1205516,16.9161874 7.59711771,16.9576735 C9.06420343,16.9988939 10.537317,16.9988939 12.0072493,16.9980399 C13.4778385,16.9988939 14.950925,16.9988939 16.4178114,16.9576735 C17.8941638,16.9161876 19.3656812,16.8334055 20.8248174,16.6689612 C21.4947921,16.5942257 22.1072642,16.3037857 22.5911376,15.8609148 C23.0722172,15.4205682 23.4261814,14.8288702 23.5826805,14.1484782 C23.7905237,13.236907 23.8948113,12.2860462 23.9470228,11.3297239 C23.9985362,10.3866481 23.9989694,9.42993374 23.9988941,8.50111994 L23.9998923,8.50111994 L23.9998923,8.45449094 L23.9988941,8.45449094 C23.9989318,6.60907506 23.9989318,4.65452496 23.5877478,2.85159302 C23.4322659,2.17138252 23.078396,1.57979859 22.5969959,1.13944557 L22.5969967,1.13943384 Z" id="Shape" fill="#6D6F7B"></path>
                    <path d="M16.5585648,8.04623819 C15.1921515,7.32721692 13.8349236,6.61360577 12.4793143,5.90086389 C11.3524625,5.30838819 10.2266312,4.71644433 9.0975309,4.1224518 L8.72477023,3.92635246 L8.72477023,4.34941144 L8.72477023,12.170488 L8.72477023,12.5924833 L9.09653262,12.3984519 C10.3436077,11.7475624 11.5853565,11.0990831 12.8270575,10.4504254 L16.5575665,8.50116172 L16.9918039,8.27422297 L16.5585648,8.04623979 L16.5585648,8.04623819 Z" id="Shape" fill="#FFFFFE"></path>
                </g>
            </g>
        </g>
    </g>
</svg>